<svg xmlns="http://www.w3.org/2000/svg" viewBox="0 0 467.91 467.91"><title>Asset 1</title><g id="Layer_2" data-name="Layer 2"><g id="Draw_Layer" data-name="Draw Layer"><circle cx="233.95" cy="233.95" r="233.95" style="fill:#231f20"/></g><g id="Draw_Layer-2" data-name="Draw Layer"><path d="M324.18,65.26l-2.86,3.12,0,.18,2.92-3.28s0,0,0,0Z" style="fill:#2696a1;opacity:0.978500664234161"/><path d="M271.54,442.71c0-.11.09-.22.13-.32v0l-.12.34Z" style="fill:#2696a1;opacity:0.978500664234161"/><polygon points="186.29 122.86 186.29 122.86 186.29 122.86 186.29 122.86 186.29 122.86 186.29 122.86" style="fill:#2696a1;opacity:0.978500664234161"/><path d="M153.22,51.87a15.64,15.64,0,0,0-5.08,2.54,38.41,38.41,0,0,0-5.14,4.3,72.66,72.66,0,0,0-5.36,5.74,81.76,81.76,0,0,0-14.76,25.17,91,91,0,0,0-4.79,23.29c-.27,3.28-.33,6.54-.31,9.82,0,2-.09,4,.08,6l.57,6.88c.07.87.27,1.74.41,2.6.22,1.38.44,2.74.71,4.11-.07.79.27,1.05,1,.75l1.29-.8a27.15,27.15,0,0,0,3.52-3.51,47.89,47.89,0,0,0,3.78-5.06c.47-.79.94-1.58,1.42-2.37a11.15,11.15,0,0,0,1.36-3.45,70.75,70.75,0,0,1-1.2-7.63c-.21-2.48-.51-5-.53-7.45,0-3.2-.12-6.41,0-9.61a96.74,96.74,0,0,1,3-21.28,70.51,70.51,0,0,1,3.24-8.86c.34-.65.68-1.3,1-1.94.33-.32.65-.65,1-1s.8-.64,1.23-.94a12.16,12.16,0,0,1,4.5-1.58,14.18,14.18,0,0,1,4.76.85,16.68,16.68,0,0,1,4.66,3,37.47,37.47,0,0,1,8.06,10A95.2,95.2,0,0,1,171.51,106a192.43,192.43,0,0,1,4.26,23.59c.36,3,.54,6,.77,8.94l.78,9.94c.16,2,.13,4.09.18,6.12.15,5.44.3,10.86.31,16.29L167,182.16c-3.71,3.88-7.26,7.94-10.88,11.9-7.18,7.87-14.44,15.66-21.43,23.69q-7.55,8.66-15.08,17.33c-6.08,7-12,14.15-17.47,21.65-2.9,4-5.56,8.1-8,12.36a115.28,115.28,0,0,0-5.87,11,21.54,21.54,0,0,0-2.17,10,15.53,15.53,0,0,0,1.15,4.55,6.93,6.93,0,0,0,3.33,3.38,65,65,0,0,0,9.36,4.21c3.77,1.45,7.61,2.67,11.48,3.79a188.42,188.42,0,0,0,22.68,4.9c7.84,1.23,15.76,2,23.68,2.49,4,.26,7.94.48,11.92.53l22,.28c10.71.14,21.42,0,32.12-.06a293.05,293.05,0,0,1,32.45,1.58,179.48,179.48,0,0,1,18.61,2.89c1.91.42,3.82.89,5.71,1.41,0,.4,0,.81,0,1.21,0,2.08.13,4.15.24,6.22.14,2.77.12,5.59.43,8.35.37,3.25.73,6.51,1.1,9.77.23,2.14.64,4.23,1,6.35l1,5.55c.17.92.29,1.88.52,2.79l2.25,9c.55,2.14,1,4.31,1.71,6.41l3.3,10.22c.7,2.2,1.62,4.34,2.46,6.49,1.43,3.67,2.86,7.3,4.51,10.88A83.68,83.68,0,0,0,311,422.8a18.7,18.7,0,0,0,7.81,5.91,10.43,10.43,0,0,0,4.78,0,15.13,15.13,0,0,0,5.7-2.7,27.23,27.23,0,0,0,4.64-4.14,78.85,78.85,0,0,0,5.89-7A67,67,0,0,0,348,400.64a56.91,56.91,0,0,0,4.07-21.92,81.29,81.29,0,0,0-3.76-22.89A77.44,77.44,0,0,0,339,335.57c-8.16-12.52-20.28-21.77-34.06-27.37a105.2,105.2,0,0,0-12.05-4c0-.39,0-.77,0-1.16,0-3.06,0-6.11-.07-9.17,0-2.58.13-5.17.19-7.75.08-2.9.15-5.79.22-8.69.14-5.79.57-11.6.86-17.38s.77-11.37,1.16-17.06c.36-5.13.77-10.26,1.16-15.39,1.67-22,3.8-44,5.86-66,.43-4.65.88-9.29,1.38-13.92.59-5.48,1.09-11,1.78-16.46q2.26-18,4.8-36c.85-6,1.92-12,2.91-18,.5-3,1.1-6.08,1.65-9.12.27-1.47.53-2.94.8-4.41s.62-3.22.93-4.83a42.63,42.63,0,0,0,.69-7.05c.07-.79-.27-1-1-.75a7,7,0,0,0-1.56.74,21.45,21.45,0,0,0-4.53,4.44,54.37,54.37,0,0,0-6,8.83c-.72,1.27-1.44,2.54-2.14,3.83-1.23,2.27-2.44,4.56-3.65,6.84q-3.76,7.19-7.5,14.4c-5.17,10-10.38,19.91-15.14,30.08S266.25,140.62,262,151c-4.1,10-8.11,20-11.86,30.16q-4.47,12.13-8.85,24.29c-1.14,3.16-2.31,6.29-3.51,9.43-1.56,4.06-3.1,8.11-4.8,12.1-.13-2.64-.07-5.31-.11-8s-.14-5.06-.27-7.59a85.42,85.42,0,0,0-2.14-17,31.15,31.15,0,0,0-4.08-9.73c-1.84-2.73-5.2-4.81-8.4-3a25.91,25.91,0,0,0-6.46,5.81,81.8,81.8,0,0,0-5.56,7.41c-.43.62-.82,1.28-1.22,1.93-.84,1.35-1.76,2.72-2.5,4.12-1.58,3-3.07,6-4.46,9.1-2.3,5.07-4.21,10.29-6.12,15.52-1.51,4.12-2.9,8.29-4.22,12.47.17-3.11.33-6.23.5-9.34.59-10.92,1.16-21.85,1.64-32.78q.68-15.21.64-30.46v-.81c1.56-1.58,3.15-3.13,4.73-4.69l16.45-16.14c7.5-7.37,15.2-14.52,22.83-21.75a41.24,41.24,0,0,0,3.85-4.49,28.3,28.3,0,0,0,4.18-7c.47-.74-3.21-.25-3.54.06-7.38,7-14.83,13.89-22.07,21l-16.32,16c-3.42,3.35-6.78,6.77-10.11,10.21,0-3,0-6-.09-8.94-.15-5.48-.11-11-.54-16.47-.6-7.79-1.11-15.56-2.2-23.29a162.76,162.76,0,0,0-5.15-23.72,92.37,92.37,0,0,0-9-20.9,39.41,39.41,0,0,0-6.39-8.1,16.46,16.46,0,0,0-8.89-4.83,12.88,12.88,0,0,0-3.87,0l-.85.14ZM300.48,82.59c1-1.89,1.95-3.78,2.93-5.66a.59.59,0,0,0,0,.14c-.25,1.23-.46,2.47-.68,3.71L300.85,91c-1,5.44-1.8,10.92-2.69,16.38-.92,5.61-1.61,11.27-2.41,16.9-.73,5.22-1.35,10.46-2,15.7-2.77,22-4.63,44.07-6.66,66.14s-3.73,44.07-5.24,66.14c-.67,9.71-1,19.45-1.24,29.19-7-1.22-14-2-21-2.49-9.85-.73-19.76-.79-29.64-.75-11.73,0-23.44.07-35.16-.08L180.6,298c-8.07-.1-16.2-.78-24.22-1.64a200.26,200.26,0,0,1-32.14-6c-5.06-1.41-10-3.12-14.91-5a61.4,61.4,0,0,1-6.81-3.23,10,10,0,0,1-2.23-1.61,7,7,0,0,1-1.54-3,14.58,14.58,0,0,1,.11-6.34c.29-.89.63-1.75,1-2.62,1.08-2.12,2.28-4.18,3.49-6.23.65-1.05,1.32-2.08,2-3.1,1.45-2,2.94-4,4.46-5.89,8.56-10.58,17.65-20.72,26.59-31,7.26-8.34,14.87-16.38,22.32-24.54,1.42-1.54,2.83-3.09,4.24-4.63l14.86-15.52c0,3.62,0,7.24-.08,10.87-.31,21.9-1.58,43.76-2.78,65.63q-.32,5.86-.67,11.72c-.11,1.83-.22,3.66-.32,5.49-.05.93-.1,1.86-.14,2.79-.07,1.45-.44,3.11.77,4.17.87.77,3.49-2.07,3.74-2.31a41.39,41.39,0,0,0,6.23-8.07c-.07.12-.14.23-.2.35l.22-.38c.28-.45.55-.9.82-1.36.13-.21.25-.42.37-.63-.33.56-.66,1.12-1,1.67a60.67,60.67,0,0,0,3.39-6.38c.72-1.62,1.25-3.33,1.82-5,.45-1.31.83-2.64,1.24-4,.74-2.36,1.47-4.72,2.16-7.1q2.56-8.79,5.26-17.54c1.42-4.67,3-9.29,4.71-13.87,1.92-5.23,3.86-10.45,6.16-15.54.13-.29.26-.58.4-.87a6.66,6.66,0,0,1,2.36,1.22,12.09,12.09,0,0,1,2.59,3,28.12,28.12,0,0,1,3.45,8.43c1.78,7.79,2,16,2.16,23.94l.06,4c0,.79,0,1.58,0,2.38,0,.6,0,1.19,0,1.79a9,9,0,0,0,.37,3c1.75,4.3,8-3.38,9-4.66a75.87,75.87,0,0,0,9.4-14.07c6.89-13.33,11.72-27.61,16.78-41.71,3.65-10.15,7.48-20.22,11.39-30.27,4-10.34,8.32-20.56,12.79-30.72,2.22-5,4.57-10,6.9-15q6.48-13,13.18-26ZM212.25,193l-.13.16h0l.12-.15Zm6.16,17.25.06.24-.06-.24Zm80,140.39c-.51-2-1.07-4.05-1.45-6.11q-1-5.24-1.93-10.47c-.42-2.27-.59-4.59-.85-6.89-.09-.85-.2-1.7-.3-2.56a74.06,74.06,0,0,1,27.28,19.3c7.86,8.94,13,19.78,16.07,31.22,2.66,10.79,3.42,22.07.63,32.9-.4,1.29-.85,2.57-1.35,3.83a13.42,13.42,0,0,1-3.94,1,9.6,9.6,0,0,1-1.83-.21,9.19,9.19,0,0,1-2.81-1.38,22.39,22.39,0,0,1-5-4.53,68.13,68.13,0,0,1-7.77-11.41,132.4,132.4,0,0,1-7.92-17.15c-1.16-3-2.4-5.89-3.37-8.91l-3.51-10.9q-1-3.89-2-7.78Z" style="fill:#fff"/></g></g></svg>
